<?xml version="1.0" encoding="UTF-8" standalone="no"?>
<svg
   xmlns:dc="http://purl.org/dc/elements/1.1/"
   xmlns:cc="http://creativecommons.org/ns#"
   xmlns:rdf="http://www.w3.org/1999/02/22-rdf-syntax-ns#"
   xmlns:svg="http://www.w3.org/2000/svg"
   xmlns="http://www.w3.org/2000/svg"
   viewBox="0 0 666.66669 666.66669"
   height="666.66669"
   width="666.66669"
   xml:space="preserve"
   id="svg2"
   version="1.1"><metadata
     id="metadata8"><rdf:RDF><cc:Work
         rdf:about=""><dc:format>image/svg+xml</dc:format><dc:type
           rdf:resource="http://purl.org/dc/dcmitype/StillImage" /></cc:Work></rdf:RDF></metadata><defs
     id="defs6"><clipPath
       id="clipPath18"
       clipPathUnits="userSpaceOnUse"><path
         id="path16"
         d="M 0,500 H 500 V 0 H 0 Z" /></clipPath></defs><g
     transform="matrix(1.3333333,0,0,-1.3333333,0,666.66667)"
     id="g10"><g
       id="g12"><g
         clip-path="url(#clipPath18)"
         id="g14"><g
           transform="translate(250.7441,366.0957)"
           id="g20"><path
             id="path22"
             style="fill:#0372b4;fill-opacity:1;fill-rule:evenodd;stroke:none"
             d="m 0,0 v -67.597 l -116.744,-68.204 c 0,0 0.043,-75.32 0.043,-98.2 7.709,4.404 116.609,67.167 116.609,67.167 v -67.211 l -174.726,-99.985 -0.338,233.822 L 0,0" /></g><g
           transform="translate(425.9844,465.5918)"
           id="g24"><path
             id="path26"
             style="fill:#0372b4;fill-opacity:1;fill-rule:evenodd;stroke:none"
             d="m 0,0 v -199.842 l -57.917,33.252 -0.158,65.884 -58.84,-32.305 -58.325,33.515 z" /></g><g
           transform="translate(250.6523,132.0518)"
           id="g28"><path
             id="path30"
             style="fill:#012b42;fill-opacity:1;fill-rule:evenodd;stroke:none"
             d="M 0,0 V 67.21 L 116.981,0.752 v 97.897 l -116.889,67.8 v 67.595 L 175.332,133.698 V -99.827 Z" /></g><g
           transform="translate(192.0469,332.7637)"
           id="g32"><path
             id="path34"
             style="fill:#012b42;fill-opacity:1;fill-rule:evenodd;stroke:none"
             d="m 0,0 -58.029,33.201 v -66.939 l -58.43,-33.138 0.205,199.676 c 0,0 119.22,-67.425 174.951,-99.468 z" /></g><g
           transform="translate(165.0586,248.5107)"
           id="g36"><path
             id="path38"
             style="fill:#012b42;fill-opacity:1;fill-rule:evenodd;stroke:none"
             d="m 0,0 85.594,-49.249 -58.432,-33.643 -58.178,33.387 -0.042,31.289 z" /></g><g
           transform="translate(250.6523,198.8818)"
           id="g40"><path
             id="path42"
             style="fill:#0372b4;fill-opacity:1;fill-rule:evenodd;stroke:none"
             d="m 0,0 86.211,49.646 30.77,-17.827 c 0,0 0.032,-22.351 0,-31.992 -19.376,-11.066 -57.719,-33.2 -57.719,-33.2 z" /></g></g></g></g></svg>