<?xml version="1.0" encoding="UTF-8" standalone="no"?>
<!-- Created with Inkscape (http://www.inkscape.org/) -->

<svg
   xmlns:dc="http://purl.org/dc/elements/1.1/"
   xmlns:cc="http://creativecommons.org/ns#"
   xmlns:rdf="http://www.w3.org/1999/02/22-rdf-syntax-ns#"
   xmlns:svg="http://www.w3.org/2000/svg"
   xmlns="http://www.w3.org/2000/svg"
   xmlns:sodipodi="http://sodipodi.sourceforge.net/DTD/sodipodi-0.dtd"
   xmlns:inkscape="http://www.inkscape.org/namespaces/inkscape"
   width="26.057474mm"
   height="25.4mm"
   viewBox="0 0 92.329633 89.999998"
   id="svg2"
   version="1.1"
   inkscape:version="0.91 r13725"
   sodipodi:docname="wsfav.svg">
  <defs
     id="defs4" />
  <sodipodi:namedview
     id="base"
     pagecolor="#ffffff"
     bordercolor="#666666"
     borderopacity="1.0"
     inkscape:pageopacity="0.0"
     inkscape:pageshadow="2"
     inkscape:zoom="0.35"
     inkscape:cx="-378.83518"
     inkscape:cy="-180.71428"
     inkscape:document-units="px"
     inkscape:current-layer="layer1"
     showgrid="false"
     fit-margin-top="0"
     fit-margin-left="0"
     fit-margin-right="0"
     fit-margin-bottom="0"
     inkscape:window-width="1855"
     inkscape:window-height="1056"
     inkscape:window-x="65"
     inkscape:window-y="24"
     inkscape:window-maximized="1" />
  <metadata
     id="metadata7">
    <rdf:RDF>
      <cc:Work
         rdf:about="">
        <dc:format>image/svg+xml</dc:format>
        <dc:type
           rdf:resource="http://purl.org/dc/dcmitype/StillImage" />
        <dc:title></dc:title>
      </cc:Work>
    </rdf:RDF>
  </metadata>
  <g
     inkscape:label="Layer 1"
     inkscape:groupmode="layer"
     id="layer1"
     transform="translate(-328.1209,-261.64792)">
    <g
       id="g4148">
      <path
         inkscape:connector-curvature="0"
         id="path192-8-1"
         style="fill:#2f302f;fill-opacity:1;fill-rule:nonzero;stroke:none"
         d="m 352.72198,320.25974 c -2.58851,2.5482 -2.87752,6.43135 -0.64366,8.6306 2.23386,2.19552 6.17783,1.9099 8.7676,-0.63581 l 33.81209,-33.2694 -8.1252,-7.99231 -33.81083,33.26692 z" />
      <path
         inkscape:connector-curvature="0"
         id="path196-5-2"
         style="fill:#00d8ff;fill-opacity:1;fill-rule:nonzero;stroke:none"
         d="m 413.7733,300.25302 c 0.31931,1.99683 0.48969,4.02347 0.50483,6.0439 0.0189,2.61898 -0.2196,5.24542 -0.71054,7.80852 -0.49852,2.60532 -1.2646,5.18332 -2.27551,7.66198 -1.0349,2.5333 -2.3424,4.98961 -3.88718,7.29814 -1.54603,2.31473 -3.3205,4.46804 -5.27292,6.40278 -1.90699,1.8888 -4.00959,3.60126 -6.2485,5.09019 -2.20358,1.45789 -4.56238,2.7146 -7.00954,3.73289 -2.41181,1.00338 -4.94226,1.78821 -7.52571,2.33088 -2.57084,0.53522 -5.20351,0.82953 -7.82357,0.87548 -2.63899,0.0435 -5.29312,-0.15895 -7.88162,-0.61842 -2.62763,-0.46568 -5.22244,-1.19214 -7.71755,-2.16448 -2.54938,-0.99469 -5.0142,-2.2601 -7.32884,-3.75897 -2.31211,-1.49514 -4.46898,-3.22374 -6.41005,-5.13489 -1.88679,-1.86148 -3.59311,-3.91917 -5.07351,-6.11717 -1.45264,-2.15827 -2.69704,-4.47301 -3.70039,-6.87716 -0.99325,-2.38677 -1.75806,-4.88157 -2.27425,-7.41362 -0.51618,-2.53703 -0.79005,-5.13614 -0.80646,-7.72408 -0.0177,-2.6165 0.22213,-5.24417 0.71433,-7.80851 0.49852,-2.61154 1.26207,-5.18954 2.27551,-7.66323 1.02985,-2.52833 2.33862,-4.98712 3.88465,-7.29813 1.53972,-2.30108 3.31546,-4.45563 5.27545,-6.40031 1.90446,-1.89128 4.00707,-3.60374 6.25103,-5.09018 2.196,-1.45541 4.55228,-2.71212 7.00574,-3.73041 2.42317,-1.00959 4.95615,-1.79318 7.52446,-2.33212 1.13712,-0.23843 1.86407,-1.33868 1.62302,-2.45631 -0.24232,-1.11887 -1.3542,-1.8354 -2.49764,-1.59573 -2.83082,0.59235 -5.61999,1.45789 -8.29053,2.56931 -2.70335,1.1226 -5.29816,2.50598 -7.71629,4.1104 -2.47113,1.63919 -4.78703,3.52302 -6.88837,5.60679 -2.15814,2.14212 -4.11056,4.51274 -5.80426,7.04107 -1.69874,2.54323 -3.1375,5.24666 -4.27336,8.03205 -1.11441,2.72205 -1.95747,5.56332 -2.50647,8.4406 -0.54143,2.82264 -0.8052,5.71979 -0.78753,8.60576 0.0214,2.84996 0.32056,5.71234 0.88976,8.50641 0.56793,2.7916 1.41099,5.54097 2.50899,8.17362 1.10431,2.65375 2.47997,5.20692 4.08279,7.5912 1.63312,2.42774 3.51991,4.70274 5.60485,6.75421 2.143,2.11233 4.52326,4.02224 7.0739,5.67012 2.55569,1.65658 5.27671,3.05362 8.09365,4.15014 2.75383,1.07292 5.62251,1.87762 8.52275,2.39049 2.5986,0.46071 5.25273,0.69169 7.9056,0.69169 0.26377,0 0.53259,-0.002 0.79763,-0.007 2.88761,-0.0522 5.78658,-0.37503 8.61993,-0.96862 2.84849,-0.59358 5.64018,-1.45913 8.29305,-2.56558 2.69578,-1.12136 5.29312,-2.50474 7.72008,-4.11413 2.46861,-1.64043 4.7845,-3.52426 6.88585,-5.60554 2.1493,-2.13095 4.10172,-4.49909 5.80173,-7.04232 1.69874,-2.54075 3.13624,-5.24417 4.27715,-8.03204 1.11441,-2.72826 1.95747,-5.56953 2.50521,-8.44184 0.54016,-2.8214 0.80394,-5.71731 0.78248,-8.60204 -0.0189,-2.84867 -0.31804,-5.71229 -0.88723,-8.50761 -0.0694,-0.34895 -0.15776,-0.69417 -0.23727,-1.04064 l -2.44463,2.40664 -1.1447,1.12632 z" />
      <path
         inkscape:connector-curvature="0"
         id="path200-2-8"
         style="fill:#00d8ff;fill-opacity:1;fill-rule:nonzero;stroke:none"
         d="m 418.31511,283.26788 -3.13245,-3.08342 -6.72431,6.61886 1.18004,1.15985 c 1.17624,1.37096 -0.59191,2.38801 -1.13334,2.92571 -0.51366,0.45823 -1.31129,0.45699 -1.80602,-0.036 l -1.18004,-1.15861 -6.7243,6.61886 3.13372,3.08094 c 2.84596,2.79904 7.503,2.79904 10.35023,0 l 1.92465,-1.89501 4.11182,-4.04582 c 2.84723,-2.80277 2.84723,-7.38506 0,-10.18535" />
      <path
         inkscape:connector-curvature="0"
         id="path204-1-1"
         style="fill:#00d8ff;fill-opacity:1;fill-rule:nonzero;stroke:none"
         d="m 403.13696,287.35282 c -0.50861,-0.50169 -0.50861,-1.32377 0,-1.82919 l 1.08412,-1.06672 c 0.51114,-0.4992 1.34663,-0.50169 1.86029,0 l 1.17877,1.16358 6.72305,-6.61513 -15.50705,-15.25815 c -2.84344,-2.79905 -7.503,-2.79905 -10.35022,0 l -6.03648,5.94331 c -2.8447,2.80029 -2.8447,7.38258 0,10.18411 l 15.50452,15.25691 6.72304,-6.61762 -1.18004,-1.1611 z" />
    </g>
  </g>
</svg>
